<svg width="868" height="75" viewBox="0 0 868 75" fill="none" xmlns="http://www.w3.org/2000/svg">
<g clip-path="url(#clip0_1818_40)">
<path d="M38.1609 0H28.0865C27.3908 0 26.7698 0.436252 26.5311 1.09146L0.0508083 73.8854C-0.146092 74.427 0.253758 75 0.828508 75H10.9029C11.5986 75 12.2196 74.5637 12.4583 73.9091L38.9386 1.11462C39.1355 0.573028 38.7356 0 38.1609 0ZM50.4143 30.5012C50.1498 29.7738 49.124 29.7738 48.8589 30.5012L43.6361 44.8606C43.5025 45.2279 43.5025 45.6311 43.6361 45.9984L53.7891 73.9085C54.0273 74.5637 54.6488 74.9995 55.3445 74.9995H65.4189C65.9936 74.9995 66.3935 74.4264 66.1966 73.8848L50.4143 30.5012ZM76.0966 44.5561C76.3611 45.2836 77.3869 45.2836 77.6514 44.5561L93.454 1.11462C93.6509 0.573028 93.2511 0 92.6763 0H82.602C81.9062 0 81.2853 0.4357 81.0466 1.09146L70.8732 29.0584C70.7396 29.4258 70.7396 29.8284 70.8732 30.1957L76.0966 44.5561ZM56.2328 1.08374C55.9968 0.432943 55.3797 0 54.6895 0H44.581C43.8858 0 43.2649 0.4357 43.0262 1.09091L16.5464 73.8854C16.3495 74.427 16.7494 75 17.3241 75H27.399C28.0948 75 28.7157 74.5643 28.9544 73.9091L49.2285 18.1737C49.3616 17.808 49.877 17.808 50.0095 18.1737L70.2842 73.9091C70.5223 74.5643 71.1438 75 71.8396 75H81.9145C82.4892 75 82.8891 74.427 82.6922 73.8859L56.2328 1.08374ZM109.172 0H99.0965C98.4013 0 97.7798 0.4357 97.5416 1.09091L79.1205 51.7314C78.9868 52.0987 78.9868 52.5013 79.1205 52.8686L84.3444 67.2291C84.6089 67.9565 85.6347 67.9565 85.8992 67.2291L104.134 17.0999L109.95 1.11407C110.147 0.573029 109.747 0 109.172 0Z" fill="#EF8220"/>
</g>
<defs>
<clipPath id="clip0_1818_40">
<rect width="110" height="75" fill="white"/>
</clipPath>
</defs>
</svg>