<svg  xmlns="http://www.w3.org/2000/svg" version="1.1" xmlns:xlink="http://www.w3.org/1999/xlink" width="50" height="50" x="0" y="0" viewBox="0 0 32 32" style="enable-background:new 0 0 512 512" xml:space="preserve" >
    <g>
        <path d="M1 11.859a1 1 0 0 0 1 1h28a.999.999 0 0 0 .707-1.707l-4.305-4.305a.999.999 0 1 0-1.414 1.414l2.598 2.598H2a1 1 0 0 0-1 1zM30 19.141H2a.999.999 0 0 0-.707 1.707l4.305 4.305a.997.997 0 0 0 1.414 0 .999.999 0 0 0 0-1.414l-2.598-2.598H30a1 1 0 1 0 0-2z" fill="#ffffff" opacity="1" data-original="#000000" class=""></path>
    </g>
</svg>