<svg xmlns="http://www.w3.org/2000/svg" version="1.1" xmlns:xlink="http://www.w3.org/1999/xlink" width="25" height="25" x="0" y="0" viewBox="0 0 36 36" style="enable-background:new 0 0 512 512" xml:space="preserve" class=""><g><path d="M18 1A16.99 16.99 0 0 0 3.95 8.44C2.02 11.26 1 14.57 1 18s1.02 6.74 2.95 9.56C7.12 32.22 12.38 35 18 35s10.88-2.78 14.05-7.44C33.98 24.74 35 21.43 35 18s-1.02-6.74-2.95-9.56A16.977 16.977 0 0 0 18 1zm11.18 7h-4.45c-.58-1.7-1.31-3.14-2.15-4.27 2.54.82 4.82 2.29 6.6 4.27zm-17.41 9c.07-2.48.42-4.88 1-7h10.45c.58 2.12.93 4.52 1 7zm12.46 2c-.07 2.48-.42 4.88-1 7H12.77c-.58-2.12-.93-4.52-1-7zM18 3c1.67 0 3.36 1.85 4.57 5h-9.14c1.21-3.15 2.9-5 4.57-5zm-4.58.73C12.58 4.86 11.85 6.3 11.27 8H6.82c1.78-1.98 4.06-3.45 6.6-4.27zM5.31 10h5.37c-.54 2.14-.85 4.54-.91 7H3.03c.17-2.49.95-4.89 2.28-7zm0 16a14.917 14.917 0 0 1-2.28-7h6.74c.07 2.46.38 4.86.91 7zm1.51 2h4.45c.58 1.7 1.31 3.14 2.15 4.27-2.54-.82-4.82-2.29-6.6-4.27zM18 33c-1.67 0-3.36-1.85-4.57-5h9.14c-1.21 3.15-2.9 5-4.57 5zm4.58-.73c.84-1.12 1.57-2.57 2.15-4.27h4.45a15.113 15.113 0 0 1-6.6 4.27zM30.69 26h-5.37c.54-2.14.85-4.54.91-7h6.74a15.03 15.03 0 0 1-2.28 7zm-4.46-9c-.07-2.46-.38-4.86-.91-7h5.37c1.33 2.11 2.12 4.51 2.28 7z" fill="#000000" opacity="1" data-original="#000000" class=""></path></g></svg>