<svg xmlns="http://www.w3.org/2000/svg" xmlns:xlink="http://www.w3.org/1999/xlink" viewBox="0 0 1080 1080" width="1080" height="1080" style="width: 100%; height: 100%; transform: translate3d(0px, 0px, 0px);" preserveAspectRatio="xMidYMid meet"><defs><clipPath id="__lottie_element_1925"><rect width="1080" height="1080" x="0" y="0"></rect></clipPath></defs><g clip-path="url(#__lottie_element_1925)"><g style="display: block;" transform="matrix(2.6548585891723633,0,0,2.6548585891723633,760.353271484375,606.3714599609375)" opacity="0.11975599999999688"><g opacity="1" transform="matrix(1,0,0,1,-83,-25)"><path fill="rgb(4,76,208)" fill-opacity="1" d=" M0,-150 C82.78500366210938,-150 150,-82.78500366210938 150,0 C150,82.78500366210938 82.78500366210938,150 0,150 C-82.78500366210938,150 -150,82.78500366210938 -150,0 C-150,-82.78500366210938 -82.78500366210938,-150 0,-150z"></path><path stroke-linecap="butt" stroke-linejoin="miter" fill-opacity="0" stroke-miterlimit="4" stroke="rgb(233,66,52)" stroke-opacity="1" stroke-width="0" d=" M0,-150 C82.78500366210938,-150 150,-82.78500366210938 150,0 C150,82.78500366210938 82.78500366210938,150 0,150 C-82.78500366210938,150 -150,82.78500366210938 -150,0 C-150,-82.78500366210938 -82.78500366210938,-150 0,-150z"></path></g></g><g style="display: block;" transform="matrix(2.2788589000701904,0,0,2.2788589000701904,729.145263671875,596.9714965820312)" opacity="0.3197559999999969"><g opacity="1" transform="matrix(1,0,0,1,-83,-25)"><path fill="rgb(4,76,208)" fill-opacity="1" d=" M0,-150 C82.78500366210938,-150 150,-82.78500366210938 150,0 C150,82.78500366210938 82.78500366210938,150 0,150 C-82.78500366210938,150 -150,82.78500366210938 -150,0 C-150,-82.78500366210938 -82.78500366210938,-150 0,-150z"></path><path stroke-linecap="butt" stroke-linejoin="miter" fill-opacity="0" stroke-miterlimit="4" stroke="rgb(233,66,52)" stroke-opacity="1" stroke-width="0" d=" M0,-150 C82.78500366210938,-150 150,-82.78500366210938 150,0 C150,82.78500366210938 82.78500366210938,150 0,150 C-82.78500366210938,150 -150,82.78500366210938 -150,0 C-150,-82.78500366210938 -82.78500366210938,-150 0,-150z"></path></g></g><g style="display: block;" transform="matrix(1.9028587341308594,0,0,1.9028587341308594,697.937255859375,587.5714721679688)" opacity="0.5197559999999969"><g opacity="1" transform="matrix(1,0,0,1,-83,-25)"><path fill="rgb(4,76,208)" fill-opacity="1" d=" M0,-150 C82.78500366210938,-150 150,-82.78500366210938 150,0 C150,82.78500366210938 82.78500366210938,150 0,150 C-82.78500366210938,150 -150,82.78500366210938 -150,0 C-150,-82.78500366210938 -82.78500366210938,-150 0,-150z"></path><path stroke-linecap="butt" stroke-linejoin="miter" fill-opacity="0" stroke-miterlimit="4" stroke="rgb(233,66,52)" stroke-opacity="1" stroke-width="0" d=" M0,-150 C82.78500366210938,-150 150,-82.78500366210938 150,0 C150,82.78500366210938 82.78500366210938,150 0,150 C-82.78500366210938,150 -150,82.78500366210938 -150,0 C-150,-82.78500366210938 -82.78500366210938,-150 0,-150z"></path></g></g><g style="display: block;" transform="matrix(1.5268586874008179,0,0,1.5268586874008179,666.729248046875,578.1714477539062)" opacity="0.7197559999999968"><g opacity="1" transform="matrix(1,0,0,1,-83,-25)"><path fill="rgb(4,76,208)" fill-opacity="1" d=" M0,-150 C82.78500366210938,-150 150,-82.78500366210938 150,0 C150,82.78500366210938 82.78500366210938,150 0,150 C-82.78500366210938,150 -150,82.78500366210938 -150,0 C-150,-82.78500366210938 -82.78500366210938,-150 0,-150z"></path><path stroke-linecap="butt" stroke-linejoin="miter" fill-opacity="0" stroke-miterlimit="4" stroke="rgb(233,66,52)" stroke-opacity="1" stroke-width="0" d=" M0,-150 C82.78500366210938,-150 150,-82.78500366210938 150,0 C150,82.78500366210938 82.78500366210938,150 0,150 C-82.78500366210938,150 -150,82.78500366210938 -150,0 C-150,-82.78500366210938 -82.78500366210938,-150 0,-150z"></path></g></g><g style="display: block;" transform="matrix(1.1508586406707764,0,0,1.1508586406707764,635.521240234375,568.771484375)" opacity="0.9197559999999969"><g opacity="1" transform="matrix(1,0,0,1,-83,-25)"><path fill="rgb(4,76,208)" fill-opacity="1" d=" M0,-150 C82.78500366210938,-150 150,-82.78500366210938 150,0 C150,82.78500366210938 82.78500366210938,150 0,150 C-82.78500366210938,150 -150,82.78500366210938 -150,0 C-150,-82.78500366210938 -82.78500366210938,-150 0,-150z"></path><path stroke-linecap="butt" stroke-linejoin="miter" fill-opacity="0" stroke-miterlimit="4" stroke="rgb(233,66,52)" stroke-opacity="1" stroke-width="0" d=" M0,-150 C82.78500366210938,-150 150,-82.78500366210938 150,0 C150,82.78500366210938 82.78500366210938,150 0,150 C-82.78500366210938,150 -150,82.78500366210938 -150,0 C-150,-82.78500366210938 -82.78500366210938,-150 0,-150z"></path></g></g><g style="display: none;" transform="matrix(2.503999948501587,0,0,2.503999948501587,747.83203125,602.5999755859375)" opacity="0.2"><g opacity="1" transform="matrix(1,0,0,1,-83,-25)"><path fill="rgb(4,76,208)" fill-opacity="1" d=" M0,-150 C82.78500366210938,-150 150,-82.78500366210938 150,0 C150,82.78500366210938 82.78500366210938,150 0,150 C-82.78500366210938,150 -150,82.78500366210938 -150,0 C-150,-82.78500366210938 -82.78500366210938,-150 0,-150z"></path><path stroke-linecap="butt" stroke-linejoin="miter" fill-opacity="0" stroke-miterlimit="4" stroke="rgb(233,66,52)" stroke-opacity="1" stroke-width="0" d=" M0,-150 C82.78500366210938,-150 150,-82.78500366210938 150,0 C150,82.78500366210938 82.78500366210938,150 0,150 C-82.78500366210938,150 -150,82.78500366210938 -150,0 C-150,-82.78500366210938 -82.78500366210938,-150 0,-150z"></path></g></g><g style="display: none;" transform="matrix(2.128000020980835,0,0,2.128000020980835,716.6240234375,593.2000122070312)" opacity="0.4"><g opacity="1" transform="matrix(1,0,0,1,-83,-25)"><path fill="rgb(4,76,208)" fill-opacity="1" d=" M0,-150 C82.78500366210938,-150 150,-82.78500366210938 150,0 C150,82.78500366210938 82.78500366210938,150 0,150 C-82.78500366210938,150 -150,82.78500366210938 -150,0 C-150,-82.78500366210938 -82.78500366210938,-150 0,-150z"></path><path stroke-linecap="butt" stroke-linejoin="miter" fill-opacity="0" stroke-miterlimit="4" stroke="rgb(233,66,52)" stroke-opacity="1" stroke-width="0" d=" M0,-150 C82.78500366210938,-150 150,-82.78500366210938 150,0 C150,82.78500366210938 82.78500366210938,150 0,150 C-82.78500366210938,150 -150,82.78500366210938 -150,0 C-150,-82.78500366210938 -82.78500366210938,-150 0,-150z"></path></g></g><g style="display: none;" transform="matrix(1.7519999742507935,0,0,1.7519999742507935,685.416015625,583.7999877929688)" opacity="0.6"><g opacity="1" transform="matrix(1,0,0,1,-83,-25)"><path fill="rgb(4,76,208)" fill-opacity="1" d=" M0,-150 C82.78500366210938,-150 150,-82.78500366210938 150,0 C150,82.78500366210938 82.78500366210938,150 0,150 C-82.78500366210938,150 -150,82.78500366210938 -150,0 C-150,-82.78500366210938 -82.78500366210938,-150 0,-150z"></path><path stroke-linecap="butt" stroke-linejoin="miter" fill-opacity="0" stroke-miterlimit="4" stroke="rgb(233,66,52)" stroke-opacity="1" stroke-width="0" d=" M0,-150 C82.78500366210938,-150 150,-82.78500366210938 150,0 C150,82.78500366210938 82.78500366210938,150 0,150 C-82.78500366210938,150 -150,82.78500366210938 -150,0 C-150,-82.78500366210938 -82.78500366210938,-150 0,-150z"></path></g></g><g style="display: none;" transform="matrix(1.3760000467300415,0,0,1.3760000467300415,654.2080078125,574.4000244140625)" opacity="0.8"><g opacity="1" transform="matrix(1,0,0,1,-83,-25)"><path fill="rgb(4,76,208)" fill-opacity="1" d=" M0,-150 C82.78500366210938,-150 150,-82.78500366210938 150,0 C150,82.78500366210938 82.78500366210938,150 0,150 C-82.78500366210938,150 -150,82.78500366210938 -150,0 C-150,-82.78500366210938 -82.78500366210938,-150 0,-150z"></path><path stroke-linecap="butt" stroke-linejoin="miter" fill-opacity="0" stroke-miterlimit="4" stroke="rgb(233,66,52)" stroke-opacity="1" stroke-width="0" d=" M0,-150 C82.78500366210938,-150 150,-82.78500366210938 150,0 C150,82.78500366210938 82.78500366210938,150 0,150 C-82.78500366210938,150 -150,82.78500366210938 -150,0 C-150,-82.78500366210938 -82.78500366210938,-150 0,-150z"></path></g></g><g style="display: none;" transform="matrix(1,0,0,1,621,565)" opacity="1"><g opacity="1" transform="matrix(1,0,0,1,-83,-25)"><path fill="rgb(4,76,208)" fill-opacity="1" d=" M0,-150 C82.78500366210938,-150 150,-82.78500366210938 150,0 C150,82.78500366210938 82.78500366210938,150 0,150 C-82.78500366210938,150 -150,82.78500366210938 -150,0 C-150,-82.78500366210938 -82.78500366210938,-150 0,-150z"></path><path stroke-linecap="butt" stroke-linejoin="miter" fill-opacity="0" stroke-miterlimit="4" stroke="rgb(233,66,52)" stroke-opacity="1" stroke-width="0" d=" M0,-150 C82.78500366210938,-150 150,-82.78500366210938 150,0 C150,82.78500366210938 82.78500366210938,150 0,150 C-82.78500366210938,150 -150,82.78500366210938 -150,0 C-150,-82.78500366210938 -82.78500366210938,-150 0,-150z"></path></g></g><g style="display: block;" transform="matrix(1,0,0,1,623,565)" opacity="1"><g opacity="1" transform="matrix(1,0,0,1,-83,-25)"><path fill="rgb(4,76,208)" fill-opacity="1" d=" M0,-150 C82.78500366210938,-150 150,-82.78500366210938 150,0 C150,82.78500366210938 82.78500366210938,150 0,150 C-82.78500366210938,150 -150,82.78500366210938 -150,0 C-150,-82.78500366210938 -82.78500366210938,-150 0,-150z"></path></g></g><g style="display: block;" transform="matrix(1,0,0,1,538.469970703125,563.3699951171875)" opacity="1"><g opacity="1" transform="matrix(1,0,0,1,0,0)"><path fill="rgb(255,255,255)" fill-opacity="1" d=" M80.68399810791016,-1.3049999475479126 C84.04399871826172,-2.6549999713897705 86.83399963378906,-4.590000152587891 89.05400085449219,-7.110000133514404 C89.05400085449219,-7.110000133514404 81.58399963378906,-15.210000038146973 81.58399963378906,-15.210000038146973 C79.96399688720703,-13.64900016784668 78.1780014038086,-12.479000091552734 76.22899627685547,-11.699999809265137 C74.27899932861328,-10.920000076293945 72.01300048828125,-10.529999732971191 69.43399810791016,-10.529999732971191 C66.55400085449219,-10.529999732971191 64.0479965209961,-11.055000305175781 61.91899871826172,-12.104999542236328 C59.78900146484375,-13.154000282287598 58.138999938964844,-14.684000015258789 56.96900177001953,-16.69499969482422 C55.79899978637695,-18.704999923706055 55.2140007019043,-21.02899932861328 55.2140007019043,-23.670000076293945 C55.2140007019043,-23.670000076293945 55.2140007019043,-25.829999923706055 55.2140007019043,-25.829999923706055 C55.2140007019043,-28.409000396728516 55.722999572753906,-30.645000457763672 56.74399948120117,-32.53499984741211 C57.763999938964844,-34.42499923706055 59.1879997253418,-35.89500045776367 61.01900100708008,-36.94499969482422 C62.8489990234375,-37.99399948120117 64.96399688720703,-38.52000045776367 67.36399841308594,-38.52000045776367 C69.76300048828125,-38.52000045776367 71.86399841308594,-37.99399948120117 73.66400146484375,-36.94499969482422 C75.46399688720703,-35.89500045776367 76.87300109863281,-34.43899917602539 77.89399719238281,-32.58000183105469 C78.91400146484375,-30.719999313354492 79.42400360107422,-28.530000686645508 79.42400360107422,-26.010000228881836 C79.42400360107422,-26.010000228881836 84.8239974975586,-28.440000534057617 84.8239974975586,-28.440000534057617 C84.8239974975586,-28.440000534057617 52.874000549316406,-28.440000534057617 52.874000549316406,-28.440000534057617 C52.874000549316406,-28.440000534057617 52.874000549316406,-20.25 52.874000549316406,-20.25 C52.874000549316406,-20.25 92.2040023803711,-20.25 92.2040023803711,-20.25 C92.26300048828125,-20.849000930786133 92.3239974975586,-21.4950008392334 92.38400268554688,-22.184999465942383 C92.44300079345703,-22.874000549316406 92.4739990234375,-23.489999771118164 92.4739990234375,-24.030000686645508 C92.4739990234375,-29.25 91.36299896240234,-33.73500061035156 89.14399719238281,-37.48500061035156 C86.92400360107422,-41.23400115966797 83.90899658203125,-44.11399841308594 80.0989990234375,-46.125 C76.28800201416016,-48.1349983215332 72.01300048828125,-49.13999938964844 67.27400207519531,-49.13999938964844 C62.354000091552734,-49.13999938964844 57.944000244140625,-48.07400131225586 54.04399871826172,-45.94499969482422 C50.143001556396484,-43.814998626708984 47.069000244140625,-40.874000549316406 44.819000244140625,-37.125 C42.569000244140625,-33.375 41.444000244140625,-29.06999969482422 41.444000244140625,-24.209999084472656 C41.444000244140625,-19.409000396728516 42.58300018310547,-15.133999824523926 44.86399841308594,-11.385000228881836 C47.14400100708008,-7.635000228881836 50.36800003051758,-4.679999828338623 54.53900146484375,-2.5199999809265137 C58.70899963378906,-0.36000001430511475 63.553001403808594,0.7200000286102295 69.0739974975586,0.7200000286102295 C73.4530029296875,0.7200000286102295 77.322998046875,0.04500000178813934 80.68399810791016,-1.3049999475479126z"></path></g><g opacity="1" transform="matrix(1,0,0,1,0,0)"><path fill="rgb(255,255,255)" fill-opacity="1" d=" M20.204999923706055,0 C20.204999923706055,0 40.6349983215332,-48.41999816894531 40.6349983215332,-48.41999816894531 C40.6349983215332,-48.41999816894531 27.135000228881836,-48.41999816894531 27.135000228881836,-48.41999816894531 C27.135000228881836,-48.41999816894531 9.585000038146973,-6.75 9.585000038146973,-6.75 C9.585000038146973,-6.75 16.78499984741211,-6.75 16.78499984741211,-6.75 C16.78499984741211,-6.75 -0.13500000536441803,-48.41999816894531 -0.13500000536441803,-48.41999816894531 C-0.13500000536441803,-48.41999816894531 -14.625,-48.41999816894531 -14.625,-48.41999816894531 C-14.625,-48.41999816894531 5.715000152587891,0 5.715000152587891,0 C5.715000152587891,0 20.204999923706055,0 20.204999923706055,0z"></path></g><g opacity="1" transform="matrix(1,0,0,1,0,0)"><path fill="rgb(255,255,255)" fill-opacity="1" d=" M-21.149999618530273,-57.46500015258789 C-19.56100082397461,-58.994998931884766 -18.764999389648438,-60.93000030517578 -18.764999389648438,-63.27000045776367 C-18.764999389648438,-65.48899841308594 -19.575000762939453,-67.30500030517578 -21.19499969482422,-68.71499633789062 C-22.815000534057617,-70.1240005493164 -24.916000366210938,-70.83000183105469 -27.4950008392334,-70.83000183105469 C-30.075000762939453,-70.83000183105469 -32.17499923706055,-70.0790023803711 -33.79499816894531,-68.58000183105469 C-35.415000915527344,-67.08000183105469 -36.224998474121094,-65.21900177001953 -36.224998474121094,-63 C-36.224998474121094,-60.779998779296875 -35.415000915527344,-58.91899871826172 -33.79499816894531,-57.41999816894531 C-32.17499923706055,-55.91999816894531 -30.075000762939453,-55.16999816894531 -27.4950008392334,-55.16999816894531 C-24.854999542236328,-55.16999816894531 -22.739999771118164,-55.935001373291016 -21.149999618530273,-57.46500015258789z M-20.475000381469727,0 C-20.475000381469727,0 -20.475000381469727,-48.41999816894531 -20.475000381469727,-48.41999816894531 C-20.475000381469727,-48.41999816894531 -34.51499938964844,-48.41999816894531 -34.51499938964844,-48.41999816894531 C-34.51499938964844,-48.41999816894531 -34.51499938964844,0 -34.51499938964844,0 C-34.51499938964844,0 -20.475000381469727,0 -20.475000381469727,0z"></path></g><g opacity="1" transform="matrix(1,0,0,1,0,0)"><path fill="rgb(255,255,255)" fill-opacity="1" d=" M-41.7140007019043,0 C-41.7140007019043,0 -41.7140007019043,-11.880000114440918 -41.7140007019043,-11.880000114440918 C-41.7140007019043,-11.880000114440918 -73.30400085449219,-11.880000114440918 -73.30400085449219,-11.880000114440918 C-73.30400085449219,-11.880000114440918 -73.30400085449219,-63 -73.30400085449219,-63 C-73.30400085449219,-63 -87.88400268554688,-63 -87.88400268554688,-63 C-87.88400268554688,-63 -87.88400268554688,0 -87.88400268554688,0 C-87.88400268554688,0 -41.7140007019043,0 -41.7140007019043,0z"></path></g></g></g></svg>