<svg xmlns="http://www.w3.org/2000/svg" version="1.1" xmlns:xlink="http://www.w3.org/1999/xlink" width="25" height="25" x="0" y="0" viewBox="0 0 512 512" style="enable-background:new 0 0 512 512" xml:space="preserve" class=""><g><path d="M478.382 177.199c.609-2.717.937-5.499.937-8.348v-65.362c0-56.605-123.479-87.149-239.66-87.149S0 46.884 0 103.489c0 2.442.245 4.831.694 7.175-.425 1.165-.694 2.407-.694 3.719v54.468c0 18.108 12.652 33.544 33.644 46.172-.628 2.744-.963 5.515-.963 8.295 0 2.442.245 4.831.694 7.176-.426 1.165-.694 2.407-.694 3.719v54.468c0 5.001.983 9.794 2.82 14.385-20.102 14.896-24.607 29.807-24.607 40.083 0 2.442.245 4.831.694 7.175-.426 1.165-.694 2.406-.694 3.719v54.468c0 56.605 123.479 87.149 239.66 87.149s239.66-30.544 239.66-87.149v-65.362c0-4.836-.967-9.612-2.842-14.275C502.912 317.45 512 304.025 512 288.681v-65.363c0-11.996-6.013-29.423-33.618-46.119zM81.343 59.903c42.125-14.041 98.351-21.775 158.316-21.775s116.189 7.734 158.316 21.775c37.293 12.431 59.556 28.725 59.556 43.586s-22.263 31.155-59.556 43.586c-42.128 14.041-98.351 21.775-158.316 21.775s-116.192-7.734-158.316-21.775c-37.293-12.431-59.556-28.725-59.556-43.586s22.264-31.155 59.556-43.586zm376.189 81.613v27.335c0 12.589-16.022 26.197-43.574 37.623v-41.967c17.559-6.498 32.456-14.175 43.574-22.991zm-65.362 30.082v42.681c-13.338 4.142-27.96 7.679-43.574 10.574v-43.36c15.352-2.709 30-6.012 43.574-9.895zm-65.361 13.287v43.513c-13.975 1.958-28.555 3.442-43.574 4.417V189.22c14.761-.961 29.374-2.41 43.574-4.335zm-65.362 5.398v43.582c-7.195.228-14.462.347-21.787.347s-14.593-.119-21.787-.347v-43.583a671.913 671.913 0 0 0 43.574.001zm-65.362-1.063v43.596c-15.019-.976-29.6-2.459-43.575-4.417v-43.513c14.2 1.924 28.813 3.373 43.575 4.334zm-65.362-7.726v43.36c-15.614-2.896-30.237-6.432-43.574-10.574v-42.682c13.574 3.883 28.223 7.187 43.574 9.896zM21.787 168.851v-27.335c11.118 8.816 26.015 16.493 43.574 22.991v41.967c-27.552-11.426-43.574-25.034-43.574-37.623zm32.681 92.493c11.118 8.816 26.015 16.493 43.574 22.991v41.968c-27.552-11.426-43.574-25.034-43.574-37.623v-27.336zm21.787 184.79c-27.552-11.426-43.574-25.034-43.574-37.623v-27.335c11.118 8.816 26.015 16.493 43.574 22.991v41.967zm65.362 18.38c-15.614-2.896-30.237-6.432-43.574-10.574v-42.682c13.574 3.882 28.223 7.186 43.574 9.896v43.36zm65.362 7.961c-15.019-.976-29.6-2.46-43.575-4.417v-43.513c14.2 1.924 28.813 3.373 43.575 4.335v43.595zm65.361 1.05c-7.195.228-14.462.347-21.787.347-7.325 0-14.593-.119-21.787-.347v-43.582c7.27.236 14.542.355 21.787.355 7.245 0 14.517-.119 21.787-.355v43.582zm65.362-5.467c-13.975 1.958-28.555 3.442-43.574 4.417V428.88c14.762-.961 29.375-2.41 43.574-4.334v43.512zm65.362-14.119c-13.338 4.142-27.96 7.679-43.574 10.574v-43.36c15.352-2.709 30.001-6.013 43.574-9.895v42.681zm65.362-45.428c0 12.589-16.022 26.197-43.574 37.623v-41.967c17.56-6.499 32.457-14.175 43.574-22.991v27.335zm-59.556-21.776c-42.128 14.041-98.351 21.775-158.316 21.775s-116.192-7.734-158.316-21.775c-37.293-12.431-59.556-28.725-59.556-43.586 0-8.527 7.383-16.324 15.237-22.209 36.485 35.855 132.719 54.89 224.423 54.89 73.334 0 149.563-12.174 195.823-35.386.161.904.262 1.805.262 2.705-.001 14.862-22.265 31.155-59.557 43.586zM119.83 334.11v-42.683c13.574 3.882 28.223 7.186 43.574 9.895v43.362c-15.614-2.895-30.237-6.432-43.574-10.574zm65.362 14.119v-43.515c14.2 1.924 28.813 3.373 43.574 4.335v43.597c-15.019-.976-29.6-2.46-43.574-4.417zm65.361 5.466v-43.584c7.27.236 14.542.355 21.787.355s14.517-.119 21.787-.355v43.584c-7.195.228-14.462.347-21.787.347s-14.592-.119-21.787-.347zm65.362-1.05v-43.597c14.762-.961 29.375-2.41 43.574-4.335v43.515c-13.974 1.958-28.555 3.442-43.574 4.417zm65.362-7.961v-43.362c15.352-2.709 30.001-6.013 43.574-9.895v42.683c-13.338 4.142-27.96 7.679-43.574 10.574zm108.936-56.003c0 12.589-16.022 26.197-43.574 37.623v-41.968c17.56-6.499 32.457-14.175 43.574-22.991v27.336zm-59.556-21.777c-42.125 14.042-98.351 21.775-158.316 21.775s-116.192-7.733-158.316-21.775c-35.372-11.79-57.185-27.055-59.342-41.277C101.462 245.575 171.799 256 239.66 256c95.5 0 195.913-20.642 228.641-59.428 14.183 8.809 21.912 18.177 21.912 26.746 0 14.861-22.264 31.155-59.556 43.586z" fill="#000000" opacity="1" data-original="#000000" class=""></path></g></svg>