<svg xmlns="http://www.w3.org/2000/svg" version="1.1" xmlns:xlink="http://www.w3.org/1999/xlink" width="25" height="25" x="0" y="0" viewBox="0 0 128 128" style="enable-background:new 0 0 512 512" xml:space="preserve" class=""><g><path d="M128 92c0 2.211-1.791 4-4 4H13.656l17.172 17.172a3.997 3.997 0 0 1 0 5.656C30.047 119.609 29.023 120 28 120s-2.047-.391-2.828-1.172l-24-24a3.997 3.997 0 0 1 0-5.656l24-24c1.563-1.563 4.094-1.563 5.656 0s1.563 4.094 0 5.656L13.656 88H124c2.209 0 4 1.789 4 4zm-1.172-58.828-24-24c-1.563-1.563-4.094-1.563-5.656 0s-1.563 4.094 0 5.656L114.344 32H4c-2.209 0-4 1.789-4 4s1.791 4 4 4h110.344L97.172 57.172a3.997 3.997 0 0 0 0 5.656C97.953 63.609 98.977 64 100 64s2.047-.391 2.828-1.172l24-24a3.997 3.997 0 0 0 0-5.656z" fill="#000000" opacity="1" data-original="#000000" class=""></path></g></svg>